<svg xmlns="http://www.w3.org/2000/svg" width="35.375" height="34.563" viewBox="0 0 35.375 34.563">
  <g id="Group_5064" data-name="Group 5064" transform="translate(-780.014 -12622.133)">
    <path id="Path_1199" data-name="Path 1199" d="M25.613,0H9.762A9.663,9.663,0,0,0,0,9.538V25.025a9.663,9.663,0,0,0,9.762,9.538H25.613a9.663,9.663,0,0,0,9.763-9.538V9.538A9.663,9.663,0,0,0,25.613,0Zm6.624,25.025A6.556,6.556,0,0,1,25.613,31.5H9.762a6.556,6.556,0,0,1-6.623-6.471V9.538A6.556,6.556,0,0,1,9.762,3.067H25.613a6.557,6.557,0,0,1,6.624,6.471V25.025Z" transform="translate(780.014 12622.133)" fill="#fff"/>
    <path id="Path_1200" data-name="Path 1200" d="M49.521,40.97a8.156,8.156,0,1,0,8.553,8.147A8.367,8.367,0,0,0,49.521,40.97Zm0,13.488a5.348,5.348,0,1,1,5.608-5.341A5.486,5.486,0,0,1,49.521,54.458Z" transform="translate(748.18 12590.298)" fill="#fff"/>
    <path id="Path_1201" data-name="Path 1201" d="M121.374,28.251a2.451,2.451,0,1,0,1.735.718A2.462,2.462,0,0,0,121.374,28.251Z" transform="translate(685.732 12599.579)" fill="#fff"/>
  </g>
</svg>
