<svg width="200" height="48.33" viewBox="0 0 1064 273" fill="none" xmlns="http://www.w3.org/2000/svg">
<path d="M292.739 32.9365L169.873 245.746L47.0074 32.9365L292.739 32.9365Z" stroke="green" stroke-width="10"/>
<path d="M357.859 32.4365L234.127 246.746L110.395 32.4365L357.859 32.4365Z" stroke="green" stroke-width="9"/>
<path d="M473.643 235L422.893 165.5L392.143 193.75V235H379.643V52.5H392.143V179.75L471.393 105.25H485.643L431.393 158L487.393 235H473.643ZM557.922 237.5C548.755 237.5 540.255 235.75 532.422 232.25C524.755 228.75 518.089 223.917 512.422 217.75C506.755 211.417 502.339 204.167 499.172 196C496.005 187.833 494.422 179.25 494.422 170.25C494.422 161.083 496.005 152.5 499.172 144.5C502.339 136.333 506.755 129.167 512.422 123C518.255 116.667 525.005 111.75 532.672 108.25C540.505 104.583 548.922 102.75 557.922 102.75C566.922 102.75 575.255 104.583 582.922 108.25C590.589 111.75 597.339 116.667 603.172 123C609.005 129.167 613.505 136.333 616.672 144.5C619.839 152.5 621.422 161.083 621.422 170.25C621.422 179.25 619.839 187.833 616.672 196C613.505 204.167 609.005 211.417 603.172 217.75C597.505 223.917 590.755 228.75 582.922 232.25C575.255 235.75 566.922 237.5 557.922 237.5ZM506.922 170.75C506.922 180.917 509.172 190.25 513.672 198.75C518.339 207.083 524.505 213.75 532.172 218.75C539.839 223.75 548.339 226.25 557.672 226.25C567.005 226.25 575.505 223.75 583.172 218.75C591.005 213.583 597.172 206.75 601.672 198.25C606.339 189.583 608.672 180.167 608.672 170C608.672 159.833 606.339 150.5 601.672 142C597.172 133.5 591.005 126.75 583.172 121.75C575.505 116.583 567.089 114 557.922 114C548.589 114 540.089 116.583 532.422 121.75C524.755 126.917 518.589 133.75 513.922 142.25C509.255 150.75 506.922 160.25 506.922 170.75ZM757.621 235H745.121V162.5C745.121 145.833 742.704 133.667 737.871 126C733.204 118.167 725.704 114.25 715.371 114.25C708.038 114.25 700.788 116 693.621 119.5C686.621 123 680.454 127.833 675.121 134C669.954 140 666.204 146.833 663.871 154.5V235H651.371V105H663.121V136C666.621 129.333 671.288 123.583 677.121 118.75C682.954 113.75 689.454 109.833 696.621 107C703.788 104.167 711.204 102.75 718.871 102.75C726.038 102.75 732.038 104.083 736.871 106.75C741.871 109.25 745.871 112.917 748.871 117.75C752.038 122.583 754.288 128.583 755.621 135.75C756.954 142.917 757.621 151.083 757.621 160.25V235ZM786.414 170.25C786.414 158.083 788.997 146.917 794.164 136.75C799.331 126.583 806.414 118.417 815.414 112.25C824.414 105.917 834.664 102.75 846.164 102.75C857.497 102.75 867.497 105.75 876.164 111.75C884.997 117.75 891.914 124.917 896.914 133.25V52.5H909.414V218.5C909.414 220.5 909.831 222 910.664 223C911.664 224 912.997 224.583 914.664 224.75V235C911.997 235.333 909.997 235.417 908.664 235.25C905.664 234.75 903.164 233.333 901.164 231C899.164 228.667 898.164 226.167 898.164 223.5V209C892.831 217.667 885.664 224.583 876.664 229.75C867.664 234.917 858.414 237.5 848.914 237.5C839.914 237.5 831.581 235.667 823.914 232C816.247 228.167 809.581 223.083 803.914 216.75C798.414 210.417 794.081 203.25 790.914 195.25C787.914 187.25 786.414 178.917 786.414 170.25ZM896.914 191.25V148.5C894.581 142.167 890.831 136.417 885.664 131.25C880.497 125.917 874.664 121.75 868.164 118.75C861.664 115.583 855.247 114 848.914 114C841.414 114 834.581 115.583 828.414 118.75C822.414 121.917 817.164 126.167 812.664 131.5C808.331 136.833 804.997 142.917 802.664 149.75C800.331 156.417 799.164 163.333 799.164 170.5C799.164 177.833 800.497 184.917 803.164 191.75C805.831 198.417 809.497 204.417 814.164 209.75C818.997 214.917 824.497 219 830.664 222C836.997 224.833 843.831 226.25 851.164 226.25C855.664 226.25 860.414 225.333 865.414 223.5C870.581 221.667 875.414 219.167 879.914 216C884.581 212.667 888.414 208.917 891.414 204.75C894.581 200.417 896.414 195.917 896.914 191.25ZM938.473 197.5C938.473 189.667 940.806 182.917 945.473 177.25C950.139 171.417 956.556 166.917 964.723 163.75C972.889 160.417 982.306 158.75 992.973 158.75C999.639 158.75 1006.56 159.333 1013.72 160.5C1020.89 161.667 1027.31 163.25 1032.97 165.25V153C1032.97 141 1029.47 131.417 1022.47 124.25C1015.64 117.083 1006.14 113.5 993.973 113.5C987.473 113.5 980.723 114.833 973.723 117.5C966.723 120.167 959.556 124 952.223 129L946.973 120C955.473 114.333 963.639 110.083 971.473 107.25C979.473 104.25 987.389 102.75 995.223 102.75C1010.72 102.75 1022.97 107.333 1031.97 116.5C1040.97 125.667 1045.47 138.167 1045.47 154V218.5C1045.47 220.5 1045.89 222 1046.72 223C1047.72 224 1049.14 224.583 1050.97 224.75V235C1049.47 235.167 1048.22 235.25 1047.22 235.25C1046.22 235.25 1045.39 235.25 1044.72 235.25C1041.56 234.75 1039.06 233.417 1037.22 231.25C1035.56 229.083 1034.64 226.667 1034.47 224V213.75C1028.47 221.25 1020.72 227.083 1011.22 231.25C1001.89 235.417 992.056 237.5 981.723 237.5C973.556 237.5 966.139 235.75 959.473 232.25C952.973 228.75 947.806 224 943.973 218C940.306 211.833 938.473 205 938.473 197.5ZM1027.97 208.25C1029.64 206.083 1030.89 204 1031.72 202C1032.56 200 1032.97 198.167 1032.97 196.5V175C1026.97 172.667 1020.72 170.917 1014.22 169.75C1007.72 168.583 1001.06 168 994.223 168C981.223 168 970.639 170.583 962.473 175.75C954.473 180.917 950.473 187.917 950.473 196.75C950.473 202.25 951.889 207.333 954.723 212C957.556 216.667 961.473 220.417 966.473 223.25C971.639 226.083 977.556 227.5 984.223 227.5C993.556 227.5 1002.14 225.75 1009.97 222.25C1017.97 218.583 1023.97 213.917 1027.97 208.25Z" fill="green"/>
</svg>


