<svg xmlns="http://www.w3.org/2000/svg" width="35.505" height="35.504" viewBox="0 0 35.505 35.504">
  <g id="Group_4634" data-name="Group 4634" transform="translate(-946.148 -12619.186)">
    <g id="Group_521" data-name="Group 521" transform="translate(946.148 12630.28)">
      <g id="Group_520" data-name="Group 520">
        <rect id="Rectangle_242" data-name="Rectangle 242" width="7.94" height="24.409" fill="#fff"/>
      </g>
    </g>
    <g id="Group_523" data-name="Group 523" transform="translate(957.244 12630.273)">
      <g id="Group_522" data-name="Group 522">
        <path id="Path_304" data-name="Path 304" d="M178.474,160.191l-.25-.083c-.1-.028-.215-.042-.319-.062a7.177,7.177,0,0,0-1.422-.146c-4.632,0-7.566,3.363-8.529,4.667v-4.66H160v24.409h7.94V171s6-8.356,8.529-2.219v15.533h7.94V167.847A7.922,7.922,0,0,0,178.474,160.191Z" transform="translate(-160 -159.9)" fill="#fff"/>
      </g>
    </g>
    <g id="Group_525" data-name="Group 525" transform="translate(946.148 12619.186)">
      <g id="Group_524" data-name="Group 524">
        <ellipse id="Ellipse_47" data-name="Ellipse 47" cx="3.883" cy="3.883" rx="3.883" ry="3.883" fill="#fff"/>
      </g>
    </g>
  </g>
</svg>
