<svg id="Group_2528" data-name="Group 2528" xmlns="http://www.w3.org/2000/svg" width="40.447" height="32.854" viewBox="0 0 40.447 32.854">
  <path id="Path_784" data-name="Path 784" d="M40.447,3.887a16.568,16.568,0,0,1-4.764,1.307A8.331,8.331,0,0,0,39.329.607a16.72,16.72,0,0,1-5.272,2.014,8.3,8.3,0,0,0-14.139,7.565,23.557,23.557,0,0,1-17.1-8.669A8.307,8.307,0,0,0,5.386,12.592,8.3,8.3,0,0,1,1.628,11.55v.1A8.3,8.3,0,0,0,8.282,19.79,8.407,8.407,0,0,1,6.1,20.08a7.956,7.956,0,0,1-1.562-.154,8.3,8.3,0,0,0,7.749,5.762,16.649,16.649,0,0,1-10.3,3.546A17.61,17.61,0,0,1,0,29.121a23.456,23.456,0,0,0,12.718,3.733c15.263,0,23.607-12.642,23.607-23.606L36.3,8.174A16.576,16.576,0,0,0,40.447,3.887Z" transform="translate(0)" fill="#000"/>
</svg>
